<svg xmlns="http://www.w3.org/2000/svg" xmlns:xlink="http://www.w3.org/1999/xlink" viewBox="0 0 512 512" width="512"  height="512" ><defs><linearGradient id="b" x1="113.22" y1="54.69" x2="165.78" y2="94.31" gradientUnits="userSpaceOnUse"><stop offset="0" stop-color="#fff"></stop><stop offset="0" stop-color="#d51f00"></stop><stop offset="1" stop-color="#ff2d00"></stop></linearGradient><linearGradient id="c" x1="163" y1="166.5" x2="226" y2="166.5" gradientUnits="userSpaceOnUse"><stop offset="0" stop-color="#ff9300"></stop><stop offset="1" stop-color="#ffa600"></stop></linearGradient><linearGradient id="d" x1="117.25" y1="371.25" x2="161.75" y2="326.75" gradientUnits="userSpaceOnUse"><stop offset="0" stop-color="#324e6a"></stop><stop offset="1" stop-color="#475d70"></stop></linearGradient><linearGradient id="e" x1="116" y1="417.5" x2="163" y2="417.5" xlink:href="#c"></linearGradient><radialGradient id="f" cx="325.5" cy="219.62" fx="325.5" fy="219.62" r="296.84" gradientTransform="translate(418 883) rotate(-180)" gradientUnits="userSpaceOnUse"><stop offset=".68" stop-color="#004377"></stop><stop offset=".83" stop-color="#003b69"></stop><stop offset=".89" stop-color="#002546"></stop><stop offset="1" stop-color="#001d39"></stop></radialGradient><radialGradient id="g" cx="317.14" cy="159.55" fx="317.14" fy="159.55" r="80.42" gradientUnits="userSpaceOnUse"><stop offset=".59" stop-color="#f4d7a6"></stop><stop offset=".86" stop-color="#ead1a2"></stop><stop offset=".9" stop-color="#c6ba91"></stop><stop offset="1" stop-color="#b8b18b"></stop></radialGradient><linearGradient id="h" x1="199.9" y1="252.01" x2="226" y2="252.01" gradientUnits="userSpaceOnUse"><stop offset="0" stop-color="#ff9f00"></stop><stop offset="1" stop-color="#ffa300"></stop></linearGradient><linearGradient id="i" x1="338.6" y1="108.24" x2="367.48" y2="79.36" xlink:href="#b"></linearGradient><radialGradient id="j" cx="289.78" cy="349.63" fx="289.78" fy="349.63" r="122.77" gradientUnits="userSpaceOnUse"><stop offset=".82" stop-color="#fff8d2"></stop><stop offset="1" stop-color="#002546"></stop></radialGradient><linearGradient id="k" x1="320" y1="111.82" x2="399.86" y2="111.82" gradientUnits="userSpaceOnUse"><stop offset="0" stop-color="orange"></stop><stop offset=".62" stop-color="#ffa400"></stop><stop offset="1" stop-color="#ff8300"></stop></linearGradient><linearGradient id="b" x1="113.22" y1="54.69" x2="165.78" y2="94.31" gradientUnits="userSpaceOnUse"><stop offset="0" stop-color="#fff"></stop><stop offset="0" stop-color="#d51f00"></stop><stop offset="1" stop-color="#ff2d00"></stop></linearGradient><linearGradient id="c" x1="163" y1="166.5" x2="226" y2="166.5" gradientUnits="userSpaceOnUse"><stop offset="0" stop-color="#ff9300"></stop><stop offset="1" stop-color="#ffa600"></stop></linearGradient><linearGradient id="d" x1="117.25" y1="371.25" x2="161.75" y2="326.75" gradientUnits="userSpaceOnUse"><stop offset="0" stop-color="#324e6a"></stop><stop offset="1" stop-color="#475d70"></stop></linearGradient><linearGradient id="e" x1="116" y1="417.5" x2="163" y2="417.5" xlink:href="#c"></linearGradient><radialGradient id="f" cx="325.5" cy="219.62" fx="325.5" fy="219.62" r="296.84" gradientTransform="translate(418 883) rotate(-180)" gradientUnits="userSpaceOnUse"><stop offset=".68" stop-color="#004377"></stop><stop offset=".83" stop-color="#003b69"></stop><stop offset=".89" stop-color="#002546"></stop><stop offset="1" stop-color="#001d39"></stop></radialGradient><radialGradient id="g" cx="317.14" cy="159.55" fx="317.14" fy="159.55" r="80.42" gradientUnits="userSpaceOnUse"><stop offset=".59" stop-color="#f4d7a6"></stop><stop offset=".86" stop-color="#ead1a2"></stop><stop offset=".9" stop-color="#c6ba91"></stop><stop offset="1" stop-color="#b8b18b"></stop></radialGradient><linearGradient id="h" x1="199.9" y1="252.01" x2="226" y2="252.01" gradientUnits="userSpaceOnUse"><stop offset="0" stop-color="#ff9f00"></stop><stop offset="1" stop-color="#ffa300"></stop></linearGradient><linearGradient id="i" x1="338.6" y1="108.24" x2="367.48" y2="79.36" xlink:href="#b"></linearGradient><radialGradient id="j" cx="289.78" cy="349.63" fx="289.78" fy="349.63" r="122.77" gradientUnits="userSpaceOnUse"><stop offset=".82" stop-color="#fff8d2"></stop><stop offset="1" stop-color="#002546"></stop></radialGradient><linearGradient id="k" x1="320" y1="111.82" x2="399.86" y2="111.82" gradientUnits="userSpaceOnUse"><stop offset="0" stop-color="orange"></stop><stop offset=".62" stop-color="#ffa400"></stop><stop offset="1" stop-color="#ff8300"></stop></linearGradient></defs><path class="Logo_ac__bQhq+" d="M403,181.89v-21.85c0-60.22-48.82-109.04-109.04-109.04H116V465h176.4c61.08,0,110.6-49.52,110.6-110.6v-30.14c0-37.7-35-68.26-41-68.26h2c9,0,39-33.18,39-74.11Z" fill="#FFF8D2"></path><path class="Logo_aa__ZlKby" d="M403,181.89v-21.85c0-8.98-1.09-17.7-3.14-26.04h-79.86v36.98c0,26.07-21.13,47.2-47.2,47.2h-46.8v67.69h51.93c23.24,0,42.07,18.84,42.07,42.07h0c0,23.24-18.84,42.07-42.07,42.07h-51.93v48h94v-74.66h83v-19.08c0-37.7-35-68.26-41-68.26h2c9,0,39-33.18,39-74.11Zm-121.26,101.18c-17.42,0-31.55-14.12-31.55-31.55s14.12-31.55,31.55-31.55,31.55,14.12,31.55,31.55-14.12,31.55-31.55,31.55Z" fill="#02020F"></path><rect class="Logo_u__9X--E" x="116" y="51" width="47" height="47" fill="url(&quot;#b&quot;)"></rect><rect class="Logo_aa__ZlKby" x="163" y="51" width="63" height="47" fill="#02020F"></rect><rect class="Logo_aa__ZlKby" x="226" y="98" width="62" height="17" fill="#02020F"></rect><rect class="Logo_aa__ZlKby" x="226" y="134" width="62" height="17" fill="#02020F"></rect><rect class="Logo_t__Q9IB-" x="163" y="151" width="63" height="31" fill="url(&quot;#c&quot;)"></rect><rect class="Logo_z__V02kf" x="116" y="98" width="13" height="189" fill="#001E37"></rect><rect class="Logo_ai__kwBoK" x="129" y="98" width="20" height="189" transform="translate(278 385) rotate(180)" fill="#E1D6B6"></rect><rect class="Logo_al__57E0Z" x="149" y="98" width="14" height="189" fill="#495F70"></rect><rect class="Logo_r__Wo8QO" x="116" y="328" width="47" height="42" fill="url(&quot;#d&quot;)"></rect><rect class="Logo_ae__QESGM" x="163" y="328" width="63" height="21" transform="translate(389 677) rotate(180)" fill="#FF3100"></rect><rect class="Logo_w__1Fgbb" x="163" y="287" width="63" height="41" transform="translate(389 615) rotate(180)" fill="#004276"></rect><rect class="Logo_aa__ZlKby" x="163" y="349" width="63" height="21" transform="translate(389 719) rotate(180)" fill="#02020F"></rect><rect class="Logo_s__C3hDA" x="116" y="370" width="47" height="95" fill="url(&quot;#e&quot;)"></rect><rect class="Logo_q__alA1I" x="163" y="418" width="92" height="47" transform="translate(418 883) rotate(180)" fill="url(&quot;#f&quot;)"></rect><path class="Logo_ai__kwBoK" d="M320,418h-65v47h37.4c9.53,0,18.77-1.21,27.6-3.47v-43.53Z" fill="#E1D6B6"></path><rect class="Logo_af__ewrG2" x="226" y="386" width="29" height="32" fill="#FF3500"></rect><rect class="Logo_y__iSeqe" x="226" y="370" width="29" height="16" fill="#001C33"></rect><circle class="Logo_m__zhaGw" cx="366" cy="179" r="28" fill="url(&quot;#g&quot;)"></circle><circle class="Logo_aj__e7kSY" cx="361" cy="308" r="20" fill="#DFD4B4"></circle><path class="Logo_n__eQECu" d="M226,285.86v-67.69c-15.02,3.93-26.1,17.59-26.1,33.84s11.08,29.91,26.1,33.84Z" fill="url(&quot;#h&quot;)"></path><path class="Logo_aa__ZlKby" d="M163,182v105h45.79c-19.32,0-34.99-15.66-34.99-34.99s15.66-34.99,34.99-34.99h17.21v-35.03h-63Z" fill="#02020F"></path><path class="Logo_v__vPxto" d="M272.8,218.17h-46.8v-67.17h94v19.98c0,26.07-21.13,47.2-47.2,47.2Z" fill="none"></path><path class="Logo_ak__hGrr-" d="M320,157.72v13.26c0,21.13-13.88,39.01-33.03,45.03,3.95,1.62,8.28,2.52,12.81,2.52,18.65,0,33.76-15.12,33.76-33.76,0-11.07-5.32-20.89-13.55-27.05Z" fill="#405065"></path><path class="Logo_ag__TSR56" d="M320,151h-20.21c7.58,0,14.58,2.5,20.21,6.72v-6.72Z" fill="#B6BAA7"></path><path class="Logo_ad__6ko-W" d="M301.98,285.86h-24.05c23.24,0,42.07,18.84,42.07,42.07h0c0,6.34-1.41,12.36-3.93,17.75,10.36-5.18,17.48-15.88,17.48-28.25h0c0-17.44-14.13-31.57-31.57-31.57Z" fill="#FD3000"></path><path class="Logo_ab__-Dsjb" d="M320,115.86c-13.46,.4-25.21,7.55-32,18.19v16.95h32v-35.14Z" fill="#FFDBA6"></path><path class="Logo_ah__4F3WL" d="M288,98v17h-62v19h62v.05c6.79-10.64,18.54-17.79,32-18.19v-17.86h-32Z" fill="#E0D5B5"></path><path class="Logo_o__7k6K1" d="M320,89.64c22.57,15.99,48.5,27.53,76.54,33.35-12.28-34-40.99-60.14-76.54-68.86v35.5Z" fill="url(&quot;#i&quot;)"></path><path class="Logo_x__0vOeb" d="M320,98V54.14c-8.35-2.05-17.07-3.14-26.04-3.14h-5.96v47h32Z" fill="#03020B"></path><path class="Logo_l__385ir" d="M391,343.34v12.06c0,53.81-43.78,97.6-97.6,97.6-3.31,0-6,2.69-6,6s2.69,6,6,6c60.43,0,109.6-49.16,109.6-109.6v-12.06h-12Z" fill="url(&quot;#j&quot;)"></path><path class="Logo_w__1Fgbb" d="M320,88.23c-6.24-14.05-17.74-25.23-32-31.06v40.83h32v-9.77Z" fill="#004276"></path><path class="Logo_p__yqjGi" d="M396.53,122.99c-28.03-5.82-53.97-17.36-76.53-33.35v44.36h79.86c-.92-3.75-2.03-7.42-3.33-11.01Z" fill="url(&quot;#k&quot;)"></path></svg>